<svg width="26" height="30" viewBox="0 0 26 30" fill="none" xmlns="http://www.w3.org/2000/svg">
<g id="Property 1=mdi:music-off" clip-path="url(#clip0_548_3425)">
<path id="Vector" d="M-0.43335 5.01544L1.12847 3.01635L21.5298 29.3351L19.9802 31.35L8.10788 16.0341V24.2666C8.10788 25.7277 7.65794 27.129 6.85704 28.1622C6.05615 29.1954 4.9699 29.7759 3.83726 29.7759C2.70463 29.7759 1.61838 29.1954 0.817484 28.1622C0.0165888 27.129 -0.43335 25.7277 -0.43335 24.2666C-0.43335 22.8054 0.0165888 21.4041 0.817484 20.3709C1.61838 19.3377 2.70463 18.7572 3.83726 18.7572C4.49616 18.7572 5.11845 18.9461 5.66753 19.2924V12.8859L-0.43335 5.01544ZM22.75 1.44226V21.1184C22.75 22.6925 22.2253 24.1406 21.3834 25.148L15.3557 17.372C16.1366 16.2859 17.2592 15.6091 18.4794 15.6091C19.1383 15.6091 19.7606 15.798 20.3096 16.1443V6.90435L9.53548 9.86364L6.47284 5.91268L22.75 1.44226Z" fill="#D51EF3"/>
</g>
<defs>
<clipPath id="clip0_548_3425">
<rect width="26" height="30" fill="white"/>
</clipPath>
</defs>
</svg>
