<svg width="26" height="24" viewBox="0 0 30 30" fill="none" xmlns="http://www.w3.org/2000/svg">
<g id="Property 1=vaadin:music">
<path id="Vector" d="M7.5 5.625V23.25C6.75 22.875 5.8125 22.5 4.6875 22.5C2.0625 22.5 0 24.1875 0 26.25C0 28.3125 2.0625 30 4.6875 30C7.3125 30 9.375 28.3125 9.375 26.25V12.5625L22.5 8.25V17.8125C21.75 17.25 20.8125 16.875 19.6875 16.875C17.0625 16.875 15 18.5625 15 20.625C15 22.6875 17.0625 24.375 19.6875 24.375C22.3125 24.375 24.375 22.6875 24.375 20.625V0L7.5 5.625Z" fill="#D51EF3"/>
</g>
</svg>
