<svg width="35" height="30" viewBox="0 0 35 30" fill="none" xmlns="http://www.w3.org/2000/svg">
<g id="Property 1=volumen on">
<path id="Vector" d="M15.8594 24.3751C15.5099 24.3751 15.1697 24.2789 14.8887 24.1008C14.8731 24.0915 14.858 24.0816 14.8436 24.071L8.59688 19.6876H3.82812C3.393 19.6876 2.9757 19.5394 2.66803 19.2757C2.36035 19.0119 2.1875 18.6543 2.1875 18.2813V11.7188C2.1875 11.3458 2.36035 10.9882 2.66803 10.7244C2.9757 10.4607 3.393 10.3126 3.82812 10.3126H8.59619L14.8422 5.92915C14.8566 5.91855 14.8717 5.90858 14.8873 5.89927C15.1316 5.74524 15.421 5.65227 15.7233 5.6307C16.0255 5.60913 16.3288 5.6598 16.5995 5.77709C16.8702 5.89437 17.0977 6.07367 17.2566 6.29508C17.4156 6.51649 17.4998 6.77133 17.5 7.0313V22.9688C17.5 23.3418 17.3271 23.6994 17.0195 23.9632C16.7118 24.2269 16.2945 24.3751 15.8594 24.3751ZM21.875 19.6876C21.6884 19.6875 21.5048 19.6465 21.3419 19.5685C21.1789 19.4905 21.042 19.3781 20.9441 19.2419C20.8462 19.1057 20.7905 18.9503 20.7825 18.7904C20.7745 18.6306 20.8143 18.4717 20.8981 18.3288C21.5469 17.2231 21.8757 16.1022 21.8757 15.0001C21.8757 13.8645 21.5571 12.777 20.9016 11.676C20.776 11.4552 20.7565 11.2009 20.8474 10.9679C20.9383 10.7349 21.1323 10.5418 21.3877 10.4301C21.643 10.3185 21.9393 10.2972 22.2127 10.3709C22.4861 10.4446 22.7149 10.6073 22.8498 10.8241C23.6653 12.1946 24.0625 13.561 24.0625 15.0001C24.0625 16.3981 23.6523 17.8014 22.8525 19.1713C22.7614 19.3266 22.6218 19.4571 22.4492 19.5482C22.2765 19.6394 22.0777 19.6876 21.875 19.6876Z" fill="#D51EF3"/>
<path id="Vector_2" d="M25.1563 22.5C24.9642 22.5 24.7756 22.4568 24.6093 22.3745C24.443 22.2922 24.3049 22.1739 24.2089 22.0313C24.1128 21.8888 24.0623 21.7271 24.0623 21.5626C24.0622 21.398 24.1128 21.2363 24.2088 21.0938C25.5015 19.1654 26.25 17.5494 26.25 15C26.25 12.4119 25.5028 10.807 24.2115 8.90977C24.0699 8.69522 24.0326 8.44149 24.1076 8.20352C24.1826 7.96554 24.364 7.76248 24.6125 7.63829C24.8609 7.5141 25.1564 7.47877 25.435 7.53997C25.7136 7.60116 25.9528 7.75394 26.101 7.96524C27.5434 10.0846 28.4375 12.0006 28.4375 15C28.4375 17.9549 27.5447 19.8803 26.1044 22.0313C26.0083 22.1739 25.8701 22.2923 25.7037 22.3746C25.5372 22.4569 25.3484 22.5001 25.1563 22.5Z" fill="#D51EF3"/>
<path id="Vector_3" d="M28.4375 25.3125C28.2406 25.3123 28.0473 25.2666 27.8781 25.1802C27.709 25.0937 27.5702 24.9697 27.4764 24.8212C27.3827 24.6727 27.3374 24.5053 27.3455 24.3366C27.3535 24.168 27.4146 24.0043 27.5222 23.8629C29.3843 21.4142 30.625 18.9703 30.625 15C30.625 11.1035 29.3822 8.63551 27.5153 6.12946C27.4381 6.02558 27.3854 5.90967 27.3604 5.78835C27.3353 5.66702 27.3384 5.54266 27.3695 5.42236C27.4005 5.30207 27.4589 5.18818 27.5413 5.08722C27.6236 4.98626 27.7284 4.9002 27.8496 4.83395C27.9708 4.7677 28.106 4.72256 28.2476 4.7011C28.3891 4.67965 28.5342 4.6823 28.6746 4.7089C28.8149 4.73551 28.9478 4.78555 29.0656 4.85617C29.1833 4.92679 29.2838 5.0166 29.361 5.12047C31.4323 7.90368 32.8125 10.6488 32.8125 15C32.8125 18.7939 31.8104 21.658 29.3535 24.8871C29.2542 25.0177 29.1184 25.125 28.9584 25.1993C28.7985 25.2735 28.6194 25.3124 28.4375 25.3125Z" fill="#D51EF3"/>
</g>
</svg>
