<svg width="35" height="30" viewBox="0 0 35 30" fill="none" xmlns="http://www.w3.org/2000/svg">
<g id="Property 1=volumen off">
<path id="Vector" d="M28.4375 25.3125L4.375 4.6875" stroke="#D51EF3" stroke-width="2.57" stroke-miterlimit="10" stroke-linecap="round"/>
<path id="Vector_2" d="M16.6339 5.79257C16.361 5.66639 16.0518 5.60941 15.7425 5.62829C15.4332 5.64718 15.1366 5.74115 14.8873 5.89921L14.8422 5.9291L12.8926 7.29726C12.8334 7.33874 12.7851 7.39038 12.7506 7.44885C12.7162 7.50733 12.6965 7.57134 12.6927 7.63676C12.6889 7.70218 12.7011 7.76756 12.7286 7.82867C12.7561 7.88979 12.7982 7.94529 12.8522 7.9916L16.5662 11.175C16.6427 11.2406 16.7402 11.2853 16.8463 11.3034C16.9525 11.3216 17.0625 11.3123 17.1625 11.2768C17.2624 11.2413 17.3479 11.1811 17.408 11.104C17.4681 11.0268 17.5001 10.9361 17.5 10.8434V7.06464C17.5031 6.80534 17.4242 6.55016 17.2717 6.32619C17.1192 6.10223 16.8988 5.91783 16.6339 5.79257ZM17.1808 19.6459L6.60967 10.5873C6.40465 10.4115 6.12655 10.3126 5.83652 10.3125H3.82813C3.393 10.3125 2.9757 10.4607 2.66803 10.7244C2.36035 10.9881 2.1875 11.3458 2.1875 11.7187V18.2812C2.1875 18.6542 2.36035 19.0119 2.66803 19.2756C2.9757 19.5393 3.393 19.6875 3.82813 19.6875H8.59688L14.8859 24.1002C15.1384 24.2608 15.4395 24.3555 15.7531 24.3731C16.0668 24.3907 16.3797 24.3303 16.6544 24.1992C16.9138 24.0724 17.129 23.8885 17.2777 23.6665C17.4264 23.4445 17.5031 23.1925 17.5 22.9365V20.308C17.5 20.0598 17.3852 19.8217 17.1808 19.6459ZM24.0625 15C24.0625 13.5609 23.6653 12.1951 22.8491 10.824C22.7844 10.7135 22.6948 10.6151 22.5855 10.5344C22.4762 10.4536 22.3494 10.3923 22.2123 10.3537C22.0752 10.3152 21.9306 10.3003 21.7868 10.3099C21.643 10.3195 21.5028 10.3534 21.3743 10.4096C21.2458 10.4658 21.1316 10.5433 21.0381 10.6375C20.9447 10.7318 20.874 10.8409 20.83 10.9586C20.786 11.0764 20.7696 11.2005 20.7818 11.3237C20.7939 11.4469 20.8344 11.5668 20.9009 11.6766C21.5564 12.7769 21.875 13.8644 21.875 15C21.875 15.1562 21.8679 15.315 21.8538 15.4764C21.848 15.5436 21.8591 15.6111 21.8865 15.6743C21.9139 15.7375 21.9568 15.7949 22.0124 15.8426L22.994 16.684C23.0649 16.7449 23.154 16.7879 23.2516 16.8083C23.3491 16.8287 23.4513 16.8257 23.5469 16.7996C23.6426 16.7735 23.728 16.7254 23.7939 16.6604C23.8598 16.5955 23.9035 16.5163 23.9203 16.4314C24.0145 15.9586 24.062 15.4797 24.0625 15ZM28.4375 15C28.4375 12.0012 27.5434 10.0846 26.101 7.96523C25.9528 7.75393 25.7136 7.60115 25.435 7.53996C25.1564 7.47876 24.8609 7.51409 24.6124 7.63828C24.364 7.76247 24.1826 7.96553 24.1076 8.20351C24.0326 8.44148 24.0699 8.69521 24.2115 8.90976C25.5028 10.807 26.25 12.4119 26.25 15C26.25 16.3963 26.0251 17.5125 25.6095 18.5537C25.5761 18.6367 25.5705 18.7261 25.5935 18.8117C25.6165 18.8972 25.667 18.9755 25.7394 19.0377L26.5918 19.7695C26.6562 19.8248 26.7358 19.8654 26.8232 19.8877C26.9107 19.9099 27.0032 19.913 27.0924 19.8968C27.1816 19.8805 27.2646 19.8454 27.334 19.7946C27.4033 19.7439 27.4567 19.679 27.4894 19.606C28.0957 18.2672 28.4375 16.8316 28.4375 15Z" fill="#D51EF3"/>
<path id="Vector_3" d="M32.8125 15C32.8125 10.6494 31.4324 7.90368 29.3597 5.12048C29.2036 4.91069 28.9567 4.76264 28.6732 4.70891C28.3898 4.65517 28.093 4.70016 27.8483 4.83395C27.6035 4.96775 27.4308 5.17941 27.3681 5.42237C27.3054 5.66532 27.3579 5.91967 27.514 6.12946C29.3823 8.63552 30.625 11.1035 30.625 15C30.625 17.7064 30.0488 19.7033 29.0917 21.4763C29.0449 21.5632 29.0301 21.6603 29.0496 21.7546C29.069 21.8489 29.1217 21.9358 29.2004 22.0037L30.0153 22.7021C30.0769 22.7558 30.1527 22.796 30.2362 22.8192C30.3198 22.8425 30.4086 22.8481 30.4953 22.8357C30.5819 22.8233 30.6638 22.7932 30.734 22.7479C30.8042 22.7026 30.8606 22.6435 30.8985 22.5756C32.2383 20.209 32.8125 17.8711 32.8125 15Z" fill="#D51EF3"/>
</g>
</svg>
