<svg width="697" height="637" viewBox="0 0 697 637" fill="none" xmlns="http://www.w3.org/2000/svg">
<g filter="url(#filter0_dd_264_3)">
<mask id="path-1-inside-1_264_3" fill="white">
<path d="M278.8 4.68638C271.6 21.353 232 191.22 232 205.22C232 208.286 250.267 230.82 298 286.42L306.933 296.82L297.2 289.086C291.733 284.686 277.733 273.353 266 263.886C254.267 254.286 242.267 244.553 239.333 242.286C235.733 239.486 231.2 233.22 225.467 223.086C182.933 148.286 100.533 16.953 99.0667 21.4864C98.6667 22.4197 105.2 36.4197 113.467 52.8197C137.067 100.153 166.133 153.086 203.6 217.486L221.6 248.553L249.067 268.953C264.267 280.286 287.067 296.82 299.733 305.886C321.467 321.353 328.4 327.353 325.467 328.286C324.8 328.553 310.8 326.553 294.4 324.02C278 321.353 250.533 317.353 233.333 315.086L202 310.953L176 314.42C103.067 324.286 4 342.553 4 346.153C4 346.686 9.2 346.953 15.6 346.553C74.1333 342.82 105.333 339.753 156 332.82C176.133 330.153 197.733 327.886 204 327.886C210.267 327.886 233.067 329.22 254.667 330.953C276.267 332.553 298.4 334.286 303.867 334.686C309.2 335.086 313.067 336.02 312.533 336.553C311.867 337.22 300.533 344.286 287.333 352.153C259.467 369.086 237.067 382.953 226.533 390.02C218.4 395.486 210.267 406.42 176.4 457.22C143.867 506.02 94.9333 585.353 96.4 586.82C99.3333 589.62 181.867 478.42 225.467 412.953C229.2 407.486 234.267 403.086 250.133 392.153C261.067 384.553 276.4 373.753 284.267 368.153L298.533 358.02L292.933 365.886C289.867 370.286 279.467 382.953 269.867 394.153C260.267 405.353 251.733 415.886 250.8 417.486C249.067 420.82 252.533 439.353 266.667 503.486C277.733 553.086 295.467 621.753 298 624.286C302.4 628.686 287.6 530.686 271.867 451.486C268.933 436.553 266.8 423.62 267.067 422.82C268 420.42 304.667 372.02 306 371.22C306.8 370.82 307.733 374.286 308.267 378.82C310.8 402.02 329.6 418.82 347.6 414.02C361.2 410.286 372 396.02 374.667 378.153C375.6 372.686 375.867 366.82 375.333 364.82C374 359.486 376.8 362.553 390.8 381.62C397.6 390.82 407.467 404.02 412.667 410.82L422.267 423.22L419.067 438.82C411.6 475.886 401.067 535.886 396.133 570.553C389.6 616.02 388.533 625.62 390.267 623.886C393.067 621.086 410.667 553.753 421.867 503.22C430 465.886 438.667 423.486 438.667 420.42C438.667 417.886 424.4 399.62 406 378.553C401.6 373.353 395.867 366.553 393.333 363.353C388.8 357.62 388.933 357.62 403.467 367.886C411.467 373.62 427.333 384.82 438.667 392.686C455.067 404.153 460.133 408.42 463.333 413.486C468.267 421.486 502.133 470.286 518.667 493.22C548.133 534.286 590.133 588.153 591.6 586.82C594.267 584.153 532.267 485.353 485.333 417.22L469.6 394.553L452.533 383.753C428 368.286 412.533 358.686 392.4 346.553C382.667 340.82 374.933 335.886 375.2 335.62C375.333 335.353 384.8 334.553 396.133 333.886C407.467 333.22 432.267 331.353 451.333 329.753L486 326.953L516.667 331.086C567.733 338.02 621.6 343.62 652 345.22C659.733 345.62 669.733 346.286 674.4 346.686C679.067 346.953 682.667 346.82 682.667 346.02C682.667 341.753 570.133 321.486 492.533 311.886C488.4 311.353 476 312.286 459.2 314.553C432.8 317.886 428.133 318.686 386.933 325.22C358.133 329.886 355.6 328.953 369.733 319.086C388.267 306.286 407.467 292.286 436.267 270.953L466.533 248.42L476.133 232.153C525.067 149.486 597.067 14.953 588.533 22.0197C586.533 23.6197 572 45.2197 551.2 77.4864C533.067 105.486 499.333 161.086 473.333 205.886C465.067 220.153 457.467 233.22 456.533 234.82C455.467 236.42 445.867 244.953 434.933 253.886C424.133 262.686 410.4 273.886 404.4 278.82C398.267 283.886 390.533 289.886 387.067 292.42C380.8 296.82 380.8 296.82 384.133 293.086C398.533 277.086 434.4 234.686 452.4 212.42L457.333 206.286L451.333 176.42C442.667 133.753 431.6 85.353 423.867 55.2197C416.667 27.6197 409.733 3.21971 408.667 2.15304C404.133 -2.38029 418.8 94.553 434.8 175.486L440.267 203.086L435.067 209.486C421.867 225.486 368.933 298.42 366.267 304.153C364.667 307.753 361.333 308.286 361.333 304.953C361.333 303.753 359.867 300.286 358 297.22C350.4 284.02 332.933 284.02 325.2 297.22C323.6 299.753 322 301.886 321.6 301.753C321.067 301.753 315.333 293.886 308.667 284.286C302.133 274.553 285.733 252.153 272.533 234.42L248.267 202.02L250.933 189.62C264.133 125.22 283.333 4.81971 280.667 2.15304C280.4 1.75304 279.467 2.95304 278.8 4.68638Z"/>
</mask>
<path d="M278.8 4.68638C271.6 21.353 232 191.22 232 205.22C232 208.286 250.267 230.82 298 286.42L306.933 296.82L297.2 289.086C291.733 284.686 277.733 273.353 266 263.886C254.267 254.286 242.267 244.553 239.333 242.286C235.733 239.486 231.2 233.22 225.467 223.086C182.933 148.286 100.533 16.953 99.0667 21.4864C98.6667 22.4197 105.2 36.4197 113.467 52.8197C137.067 100.153 166.133 153.086 203.6 217.486L221.6 248.553L249.067 268.953C264.267 280.286 287.067 296.82 299.733 305.886C321.467 321.353 328.4 327.353 325.467 328.286C324.8 328.553 310.8 326.553 294.4 324.02C278 321.353 250.533 317.353 233.333 315.086L202 310.953L176 314.42C103.067 324.286 4 342.553 4 346.153C4 346.686 9.2 346.953 15.6 346.553C74.1333 342.82 105.333 339.753 156 332.82C176.133 330.153 197.733 327.886 204 327.886C210.267 327.886 233.067 329.22 254.667 330.953C276.267 332.553 298.4 334.286 303.867 334.686C309.2 335.086 313.067 336.02 312.533 336.553C311.867 337.22 300.533 344.286 287.333 352.153C259.467 369.086 237.067 382.953 226.533 390.02C218.4 395.486 210.267 406.42 176.4 457.22C143.867 506.02 94.9333 585.353 96.4 586.82C99.3333 589.62 181.867 478.42 225.467 412.953C229.2 407.486 234.267 403.086 250.133 392.153C261.067 384.553 276.4 373.753 284.267 368.153L298.533 358.02L292.933 365.886C289.867 370.286 279.467 382.953 269.867 394.153C260.267 405.353 251.733 415.886 250.8 417.486C249.067 420.82 252.533 439.353 266.667 503.486C277.733 553.086 295.467 621.753 298 624.286C302.4 628.686 287.6 530.686 271.867 451.486C268.933 436.553 266.8 423.62 267.067 422.82C268 420.42 304.667 372.02 306 371.22C306.8 370.82 307.733 374.286 308.267 378.82C310.8 402.02 329.6 418.82 347.6 414.02C361.2 410.286 372 396.02 374.667 378.153C375.6 372.686 375.867 366.82 375.333 364.82C374 359.486 376.8 362.553 390.8 381.62C397.6 390.82 407.467 404.02 412.667 410.82L422.267 423.22L419.067 438.82C411.6 475.886 401.067 535.886 396.133 570.553C389.6 616.02 388.533 625.62 390.267 623.886C393.067 621.086 410.667 553.753 421.867 503.22C430 465.886 438.667 423.486 438.667 420.42C438.667 417.886 424.4 399.62 406 378.553C401.6 373.353 395.867 366.553 393.333 363.353C388.8 357.62 388.933 357.62 403.467 367.886C411.467 373.62 427.333 384.82 438.667 392.686C455.067 404.153 460.133 408.42 463.333 413.486C468.267 421.486 502.133 470.286 518.667 493.22C548.133 534.286 590.133 588.153 591.6 586.82C594.267 584.153 532.267 485.353 485.333 417.22L469.6 394.553L452.533 383.753C428 368.286 412.533 358.686 392.4 346.553C382.667 340.82 374.933 335.886 375.2 335.62C375.333 335.353 384.8 334.553 396.133 333.886C407.467 333.22 432.267 331.353 451.333 329.753L486 326.953L516.667 331.086C567.733 338.02 621.6 343.62 652 345.22C659.733 345.62 669.733 346.286 674.4 346.686C679.067 346.953 682.667 346.82 682.667 346.02C682.667 341.753 570.133 321.486 492.533 311.886C488.4 311.353 476 312.286 459.2 314.553C432.8 317.886 428.133 318.686 386.933 325.22C358.133 329.886 355.6 328.953 369.733 319.086C388.267 306.286 407.467 292.286 436.267 270.953L466.533 248.42L476.133 232.153C525.067 149.486 597.067 14.953 588.533 22.0197C586.533 23.6197 572 45.2197 551.2 77.4864C533.067 105.486 499.333 161.086 473.333 205.886C465.067 220.153 457.467 233.22 456.533 234.82C455.467 236.42 445.867 244.953 434.933 253.886C424.133 262.686 410.4 273.886 404.4 278.82C398.267 283.886 390.533 289.886 387.067 292.42C380.8 296.82 380.8 296.82 384.133 293.086C398.533 277.086 434.4 234.686 452.4 212.42L457.333 206.286L451.333 176.42C442.667 133.753 431.6 85.353 423.867 55.2197C416.667 27.6197 409.733 3.21971 408.667 2.15304C404.133 -2.38029 418.8 94.553 434.8 175.486L440.267 203.086L435.067 209.486C421.867 225.486 368.933 298.42 366.267 304.153C364.667 307.753 361.333 308.286 361.333 304.953C361.333 303.753 359.867 300.286 358 297.22C350.4 284.02 332.933 284.02 325.2 297.22C323.6 299.753 322 301.886 321.6 301.753C321.067 301.753 315.333 293.886 308.667 284.286C302.133 274.553 285.733 252.153 272.533 234.42L248.267 202.02L250.933 189.62C264.133 125.22 283.333 4.81971 280.667 2.15304C280.4 1.75304 279.467 2.95304 278.8 4.68638Z" fill="black"/>
<path d="M278.8 4.68638C271.6 21.353 232 191.22 232 205.22C232 208.286 250.267 230.82 298 286.42L306.933 296.82L297.2 289.086C291.733 284.686 277.733 273.353 266 263.886C254.267 254.286 242.267 244.553 239.333 242.286C235.733 239.486 231.2 233.22 225.467 223.086C182.933 148.286 100.533 16.953 99.0667 21.4864C98.6667 22.4197 105.2 36.4197 113.467 52.8197C137.067 100.153 166.133 153.086 203.6 217.486L221.6 248.553L249.067 268.953C264.267 280.286 287.067 296.82 299.733 305.886C321.467 321.353 328.4 327.353 325.467 328.286C324.8 328.553 310.8 326.553 294.4 324.02C278 321.353 250.533 317.353 233.333 315.086L202 310.953L176 314.42C103.067 324.286 4 342.553 4 346.153C4 346.686 9.2 346.953 15.6 346.553C74.1333 342.82 105.333 339.753 156 332.82C176.133 330.153 197.733 327.886 204 327.886C210.267 327.886 233.067 329.22 254.667 330.953C276.267 332.553 298.4 334.286 303.867 334.686C309.2 335.086 313.067 336.02 312.533 336.553C311.867 337.22 300.533 344.286 287.333 352.153C259.467 369.086 237.067 382.953 226.533 390.02C218.4 395.486 210.267 406.42 176.4 457.22C143.867 506.02 94.9333 585.353 96.4 586.82C99.3333 589.62 181.867 478.42 225.467 412.953C229.2 407.486 234.267 403.086 250.133 392.153C261.067 384.553 276.4 373.753 284.267 368.153L298.533 358.02L292.933 365.886C289.867 370.286 279.467 382.953 269.867 394.153C260.267 405.353 251.733 415.886 250.8 417.486C249.067 420.82 252.533 439.353 266.667 503.486C277.733 553.086 295.467 621.753 298 624.286C302.4 628.686 287.6 530.686 271.867 451.486C268.933 436.553 266.8 423.62 267.067 422.82C268 420.42 304.667 372.02 306 371.22C306.8 370.82 307.733 374.286 308.267 378.82C310.8 402.02 329.6 418.82 347.6 414.02C361.2 410.286 372 396.02 374.667 378.153C375.6 372.686 375.867 366.82 375.333 364.82C374 359.486 376.8 362.553 390.8 381.62C397.6 390.82 407.467 404.02 412.667 410.82L422.267 423.22L419.067 438.82C411.6 475.886 401.067 535.886 396.133 570.553C389.6 616.02 388.533 625.62 390.267 623.886C393.067 621.086 410.667 553.753 421.867 503.22C430 465.886 438.667 423.486 438.667 420.42C438.667 417.886 424.4 399.62 406 378.553C401.6 373.353 395.867 366.553 393.333 363.353C388.8 357.62 388.933 357.62 403.467 367.886C411.467 373.62 427.333 384.82 438.667 392.686C455.067 404.153 460.133 408.42 463.333 413.486C468.267 421.486 502.133 470.286 518.667 493.22C548.133 534.286 590.133 588.153 591.6 586.82C594.267 584.153 532.267 485.353 485.333 417.22L469.6 394.553L452.533 383.753C428 368.286 412.533 358.686 392.4 346.553C382.667 340.82 374.933 335.886 375.2 335.62C375.333 335.353 384.8 334.553 396.133 333.886C407.467 333.22 432.267 331.353 451.333 329.753L486 326.953L516.667 331.086C567.733 338.02 621.6 343.62 652 345.22C659.733 345.62 669.733 346.286 674.4 346.686C679.067 346.953 682.667 346.82 682.667 346.02C682.667 341.753 570.133 321.486 492.533 311.886C488.4 311.353 476 312.286 459.2 314.553C432.8 317.886 428.133 318.686 386.933 325.22C358.133 329.886 355.6 328.953 369.733 319.086C388.267 306.286 407.467 292.286 436.267 270.953L466.533 248.42L476.133 232.153C525.067 149.486 597.067 14.953 588.533 22.0197C586.533 23.6197 572 45.2197 551.2 77.4864C533.067 105.486 499.333 161.086 473.333 205.886C465.067 220.153 457.467 233.22 456.533 234.82C455.467 236.42 445.867 244.953 434.933 253.886C424.133 262.686 410.4 273.886 404.4 278.82C398.267 283.886 390.533 289.886 387.067 292.42C380.8 296.82 380.8 296.82 384.133 293.086C398.533 277.086 434.4 234.686 452.4 212.42L457.333 206.286L451.333 176.42C442.667 133.753 431.6 85.353 423.867 55.2197C416.667 27.6197 409.733 3.21971 408.667 2.15304C404.133 -2.38029 418.8 94.553 434.8 175.486L440.267 203.086L435.067 209.486C421.867 225.486 368.933 298.42 366.267 304.153C364.667 307.753 361.333 308.286 361.333 304.953C361.333 303.753 359.867 300.286 358 297.22C350.4 284.02 332.933 284.02 325.2 297.22C323.6 299.753 322 301.886 321.6 301.753C321.067 301.753 315.333 293.886 308.667 284.286C302.133 274.553 285.733 252.153 272.533 234.42L248.267 202.02L250.933 189.62C264.133 125.22 283.333 4.81971 280.667 2.15304C280.4 1.75304 279.467 2.95304 278.8 4.68638Z" stroke="#E81D1D" stroke-width="8" mask="url(#path-1-inside-1_264_3)"/>
<path d="M278.8 4.68638C271.6 21.353 232 191.22 232 205.22C232 208.286 250.267 230.82 298 286.42L306.933 296.82L297.2 289.086C291.733 284.686 277.733 273.353 266 263.886C254.267 254.286 242.267 244.553 239.333 242.286C235.733 239.486 231.2 233.22 225.467 223.086C182.933 148.286 100.533 16.953 99.0667 21.4864C98.6667 22.4197 105.2 36.4197 113.467 52.8197C137.067 100.153 166.133 153.086 203.6 217.486L221.6 248.553L249.067 268.953C264.267 280.286 287.067 296.82 299.733 305.886C321.467 321.353 328.4 327.353 325.467 328.286C324.8 328.553 310.8 326.553 294.4 324.02C278 321.353 250.533 317.353 233.333 315.086L202 310.953L176 314.42C103.067 324.286 4 342.553 4 346.153C4 346.686 9.2 346.953 15.6 346.553C74.1333 342.82 105.333 339.753 156 332.82C176.133 330.153 197.733 327.886 204 327.886C210.267 327.886 233.067 329.22 254.667 330.953C276.267 332.553 298.4 334.286 303.867 334.686C309.2 335.086 313.067 336.02 312.533 336.553C311.867 337.22 300.533 344.286 287.333 352.153C259.467 369.086 237.067 382.953 226.533 390.02C218.4 395.486 210.267 406.42 176.4 457.22C143.867 506.02 94.9333 585.353 96.4 586.82C99.3333 589.62 181.867 478.42 225.467 412.953C229.2 407.486 234.267 403.086 250.133 392.153C261.067 384.553 276.4 373.753 284.267 368.153L298.533 358.02L292.933 365.886C289.867 370.286 279.467 382.953 269.867 394.153C260.267 405.353 251.733 415.886 250.8 417.486C249.067 420.82 252.533 439.353 266.667 503.486C277.733 553.086 295.467 621.753 298 624.286C302.4 628.686 287.6 530.686 271.867 451.486C268.933 436.553 266.8 423.62 267.067 422.82C268 420.42 304.667 372.02 306 371.22C306.8 370.82 307.733 374.286 308.267 378.82C310.8 402.02 329.6 418.82 347.6 414.02C361.2 410.286 372 396.02 374.667 378.153C375.6 372.686 375.867 366.82 375.333 364.82C374 359.486 376.8 362.553 390.8 381.62C397.6 390.82 407.467 404.02 412.667 410.82L422.267 423.22L419.067 438.82C411.6 475.886 401.067 535.886 396.133 570.553C389.6 616.02 388.533 625.62 390.267 623.886C393.067 621.086 410.667 553.753 421.867 503.22C430 465.886 438.667 423.486 438.667 420.42C438.667 417.886 424.4 399.62 406 378.553C401.6 373.353 395.867 366.553 393.333 363.353C388.8 357.62 388.933 357.62 403.467 367.886C411.467 373.62 427.333 384.82 438.667 392.686C455.067 404.153 460.133 408.42 463.333 413.486C468.267 421.486 502.133 470.286 518.667 493.22C548.133 534.286 590.133 588.153 591.6 586.82C594.267 584.153 532.267 485.353 485.333 417.22L469.6 394.553L452.533 383.753C428 368.286 412.533 358.686 392.4 346.553C382.667 340.82 374.933 335.886 375.2 335.62C375.333 335.353 384.8 334.553 396.133 333.886C407.467 333.22 432.267 331.353 451.333 329.753L486 326.953L516.667 331.086C567.733 338.02 621.6 343.62 652 345.22C659.733 345.62 669.733 346.286 674.4 346.686C679.067 346.953 682.667 346.82 682.667 346.02C682.667 341.753 570.133 321.486 492.533 311.886C488.4 311.353 476 312.286 459.2 314.553C432.8 317.886 428.133 318.686 386.933 325.22C358.133 329.886 355.6 328.953 369.733 319.086C388.267 306.286 407.467 292.286 436.267 270.953L466.533 248.42L476.133 232.153C525.067 149.486 597.067 14.953 588.533 22.0197C586.533 23.6197 572 45.2197 551.2 77.4864C533.067 105.486 499.333 161.086 473.333 205.886C465.067 220.153 457.467 233.22 456.533 234.82C455.467 236.42 445.867 244.953 434.933 253.886C424.133 262.686 410.4 273.886 404.4 278.82C398.267 283.886 390.533 289.886 387.067 292.42C380.8 296.82 380.8 296.82 384.133 293.086C398.533 277.086 434.4 234.686 452.4 212.42L457.333 206.286L451.333 176.42C442.667 133.753 431.6 85.353 423.867 55.2197C416.667 27.6197 409.733 3.21971 408.667 2.15304C404.133 -2.38029 418.8 94.553 434.8 175.486L440.267 203.086L435.067 209.486C421.867 225.486 368.933 298.42 366.267 304.153C364.667 307.753 361.333 308.286 361.333 304.953C361.333 303.753 359.867 300.286 358 297.22C350.4 284.02 332.933 284.02 325.2 297.22C323.6 299.753 322 301.886 321.6 301.753C321.067 301.753 315.333 293.886 308.667 284.286C302.133 274.553 285.733 252.153 272.533 234.42L248.267 202.02L250.933 189.62C264.133 125.22 283.333 4.81971 280.667 2.15304C280.4 1.75304 279.467 2.95304 278.8 4.68638Z" stroke="white" stroke-opacity="0.38" stroke-width="8" mask="url(#path-1-inside-1_264_3)"/>
</g>
<defs>
<filter id="filter0_dd_264_3" x="0" y="-0.000244141" width="696.667" height="636.43" filterUnits="userSpaceOnUse" color-interpolation-filters="sRGB">
<feFlood flood-opacity="0" result="BackgroundImageFix"/>
<feColorMatrix in="SourceAlpha" type="matrix" values="0 0 0 0 0 0 0 0 0 0 0 0 0 0 0 0 0 0 127 0" result="hardAlpha"/>
<feOffset dx="7" dy="5"/>
<feGaussianBlur stdDeviation="3.5"/>
<feComposite in2="hardAlpha" operator="out"/>
<feColorMatrix type="matrix" values="0 0 0 0 0 0 0 0 0 0 0 0 0 0 0 0 0 0 0.36 0"/>
<feBlend mode="normal" in2="BackgroundImageFix" result="effect1_dropShadow_264_3"/>
<feColorMatrix in="SourceAlpha" type="matrix" values="0 0 0 0 0 0 0 0 0 0 0 0 0 0 0 0 0 0 127 0" result="hardAlpha"/>
<feOffset dy="4"/>
<feGaussianBlur stdDeviation="2"/>
<feComposite in2="hardAlpha" operator="out"/>
<feColorMatrix type="matrix" values="0 0 0 0 0 0 0 0 0 0 0 0 0 0 0 0 0 0 0.25 0"/>
<feBlend mode="normal" in2="effect1_dropShadow_264_3" result="effect2_dropShadow_264_3"/>
<feBlend mode="normal" in="SourceGraphic" in2="effect2_dropShadow_264_3" result="shape"/>
</filter>
</defs>
</svg>
