<?xml version="1.0" standalone="no"?>
<!DOCTYPE svg PUBLIC "-//W3C//DTD SVG 20010904//EN"
 "http://www.w3.org/TR/2001/REC-SVG-20010904/DTD/svg10.dtd">
<svg version="1.0" xmlns="http://www.w3.org/2000/svg"
 width="1280.000000pt" height="1230.000000pt" viewBox="0 0 1280.000000 1230.000000"
 preserveAspectRatio="xMidYMid meet">
<g transform="translate(0.000000,1230.000000) scale(0.100000,-0.100000)"
fill="#000000" stroke="none">
<path d="M4537 11183 c-3 -4 55 -199 129 -433 74 -233 134 -427 134 -431 0
-12 -208 -186 -350 -293 -143 -108 -341 -241 -636 -426 -491 -310 -699 -467
-860 -652 -33 -37 -65 -68 -72 -68 -11 0 -660 582 -829 743 -36 35 -44 38 -58
27 -9 -7 -15 -19 -13 -25 2 -7 194 -186 428 -399 355 -323 426 -391 428 -416
5 -42 -33 -261 -74 -428 -105 -432 -299 -826 -577 -1172 -95 -118 -277 -313
-338 -361 l-40 -32 -491 113 c-399 91 -492 110 -499 99 -10 -16 -12 -39 -4
-39 24 0 1012 -233 1019 -240 16 -16 116 -380 151 -554 48 -242 67 -419 68
-641 0 -269 -28 -474 -99 -720 -33 -115 -102 -292 -117 -302 -7 -4 -248 -73
-537 -153 -510 -142 -525 -147 -525 -171 0 -18 5 -23 20 -21 11 2 256 68 543
148 288 79 530 144 538 144 23 0 280 -261 366 -370 237 -303 405 -623 543
-1035 51 -151 119 -407 145 -540 6 -33 14 -68 17 -79 4 -14 -69 -92 -308 -332
-264 -265 -312 -317 -303 -331 6 -9 15 -18 21 -20 6 -2 147 136 314 306 167
171 309 313 316 315 18 7 226 -12 383 -35 700 -102 1323 -402 1822 -877 59
-56 114 -102 123 -102 8 0 15 -3 15 -7 0 -5 -25 -133 -56 -287 -46 -228 -54
-280 -43 -287 18 -11 39 -11 39 -1 0 22 122 598 128 604 18 18 738 207 942
247 458 90 842 90 1198 1 64 -16 122 -35 129 -43 7 -7 70 -190 139 -407 69
-217 129 -399 133 -403 11 -11 41 3 41 19 0 8 -56 191 -125 406 -69 215 -122
395 -118 399 4 4 62 26 128 49 143 50 365 156 490 235 219 139 385 280 748
632 275 267 470 443 493 443 7 0 216 -185 465 -410 367 -334 453 -409 465
-399 8 6 14 17 14 23 0 9 -292 279 -846 781 l-44 40 30 260 c61 531 120 771
245 1001 149 273 397 482 730 614 l76 30 481 -115 c264 -64 481 -115 483 -113
1 2 5 13 9 24 8 25 52 12 -519 149 -198 48 -364 90 -368 95 -4 4 -32 115 -62
246 -29 131 -80 354 -113 494 -159 671 -218 1029 -229 1381 -5 153 -3 188 8
195 8 5 244 93 524 195 483 175 510 187 510 210 0 13 -4 24 -10 24 -5 0 -245
-85 -532 -189 l-523 -189 -37 26 c-67 46 -191 160 -264 242 -186 209 -288 373
-604 975 -65 124 -147 276 -182 338 -55 97 -62 115 -51 131 7 9 175 194 373
410 198 217 361 399 363 406 2 6 -4 18 -13 25 -13 11 -18 10 -33 -3 -9 -9
-174 -189 -367 -401 -192 -211 -354 -385 -359 -385 -6 -1 -19 7 -30 17 -12 11
-120 58 -241 107 -703 281 -1078 496 -1420 817 -122 114 -305 343 -305 383 -1
11 28 161 62 333 55 271 61 314 48 322 -8 5 -19 8 -25 7 -5 -2 -40 -149 -77
-327 -36 -177 -72 -328 -80 -335 -16 -16 -331 -94 -538 -134 -601 -116 -1126
-122 -1630 -20 -52 11 -99 24 -105 30 -5 5 -73 209 -150 452 -124 391 -143
442 -162 445 -12 2 -23 0 -26 -5z m2603 -855 c0 -22 -117 -578 -122 -584 -22
-21 -453 -116 -681 -149 -415 -60 -743 -55 -1130 17 -95 17 -122 26 -132 42
-16 25 -175 526 -175 551 0 13 6 16 23 12 61 -16 278 -49 402 -62 187 -20 587
-20 786 0 283 29 677 99 889 159 96 28 140 32 140 14z m124 -84 c113 -150 293
-325 469 -458 289 -217 611 -386 1147 -603 259 -105 280 -115 280 -142 0 -15
-339 -397 -370 -416 -6 -4 -19 0 -28 8 -9 8 -113 54 -230 101 -407 165 -633
278 -863 432 -226 151 -422 336 -545 515 l-46 67 52 258 c54 265 64 304 77
304 5 -1 30 -30 57 -66z m-2437 -16 c5 -7 49 -138 97 -292 l88 -279 -36 -51
c-189 -274 -493 -564 -821 -783 -197 -131 -727 -418 -759 -411 -26 6 -456 402
-456 420 0 20 92 130 166 198 140 131 329 266 699 500 483 307 689 450 890
623 55 47 105 86 111 86 6 1 16 -5 21 -11z m2173 -577 c0 -42 -122 -607 -133
-617 -26 -23 -325 -89 -567 -125 -197 -29 -579 -32 -751 -6 -143 22 -246 46
-257 60 -15 18 -195 598 -188 605 4 3 48 -2 99 -11 409 -75 801 -73 1261 4
132 22 465 95 474 104 3 3 18 5 34 5 21 0 28 -5 28 -19z m139 -80 c34 -44 113
-128 174 -188 279 -269 616 -465 1222 -708 187 -75 195 -80 195 -105 0 -13
-240 -286 -385 -438 -11 -12 -17 -12 -36 1 -13 8 -105 48 -204 87 -380 152
-702 332 -887 497 -132 117 -278 295 -278 337 0 21 104 541 116 579 3 9 9 17
13 17 4 0 35 -36 70 -79z m-2055 -143 c25 -79 68 -215 95 -303 28 -88 51 -167
51 -177 0 -48 -308 -387 -465 -510 -95 -75 -270 -194 -380 -258 -128 -75 -449
-240 -467 -240 -16 0 -468 406 -468 420 0 5 87 53 194 108 618 318 1014 627
1309 1019 34 45 67 82 74 83 7 0 31 -62 57 -142z m4189 -575 c35 -65 129 -239
207 -388 256 -485 339 -623 479 -800 61 -77 228 -249 306 -313 32 -27 46 -45
40 -51 -14 -14 -482 -181 -507 -181 -51 0 -286 229 -400 391 -93 131 -164 252
-323 554 -75 143 -163 308 -196 366 -32 58 -59 113 -59 122 0 19 359 416 376
417 7 0 41 -53 77 -117z m-2419 99 c8 -13 -95 -505 -108 -518 -6 -7 -60 -23
-121 -38 -291 -68 -580 -96 -802 -77 -160 14 -334 46 -348 65 -20 26 -159 486
-149 495 5 5 49 2 104 -9 283 -55 616 -54 965 1 136 21 395 75 403 84 8 8 50
6 56 -3z m260 -207 c217 -217 486 -377 946 -565 96 -39 185 -75 198 -80 12 -5
22 -17 22 -25 0 -9 -74 -96 -165 -194 l-164 -179 -193 79 c-308 126 -483 220
-643 344 -140 110 -295 287 -295 338 0 30 89 467 98 481 3 5 26 -15 51 -45 25
-30 90 -99 145 -154z m-1772 -136 c43 -134 78 -252 78 -261 0 -23 -108 -157
-205 -253 -130 -129 -311 -263 -510 -377 -96 -55 -341 -178 -354 -178 -13 0
-375 331 -379 346 -2 8 46 38 120 75 352 176 607 343 829 542 88 79 225 228
294 320 15 21 33 36 39 34 6 -2 45 -113 88 -248z m-2202 -48 l212 -194 -7 -61
c-19 -171 -89 -440 -162 -625 -133 -337 -314 -611 -588 -888 -67 -68 -126
-123 -131 -123 -36 -1 -557 127 -561 137 -3 8 46 65 110 131 440 446 711 959
837 1585 17 81 30 158 30 172 0 41 18 77 34 68 8 -4 110 -95 226 -202z m5688
-148 c27 -49 98 -180 157 -293 234 -443 314 -577 450 -745 74 -91 155 -173
233 -235 23 -19 41 -40 40 -48 -3 -15 -504 -202 -541 -202 -25 0 -138 92 -213
173 -124 134 -213 272 -389 607 -59 113 -130 244 -157 293 -27 48 -48 92 -46
97 6 19 393 439 405 440 6 0 34 -39 61 -87z m-2096 -58 c8 -8 -110 -576 -123
-591 -10 -12 -122 -40 -264 -66 -112 -21 -450 -17 -562 6 -51 10 -97 23 -102
30 -19 23 -183 558 -174 567 6 6 37 4 81 -6 266 -55 662 -40 997 39 105 25
138 29 147 21z m146 -80 c118 -141 302 -279 523 -392 106 -55 187 -91 412
-183 54 -22 77 -37 77 -49 0 -23 -368 -424 -384 -418 -278 112 -370 155 -495
232 -103 64 -218 167 -289 259 l-46 60 48 235 c26 130 52 257 58 284 5 26 15
47 22 47 6 0 40 -34 74 -75z m-3218 -187 l232 -211 -6 -58 c-4 -32 -20 -111
-36 -176 -98 -401 -279 -723 -567 -1011 -51 -51 -93 -99 -93 -107 0 -8 -8 -15
-17 -15 -45 -1 -616 136 -621 148 -3 8 40 59 105 125 338 342 562 738 677
1195 20 79 66 300 66 318 0 22 60 -26 260 -208z m1882 -109 c47 -151 87 -286
87 -301 1 -22 -20 -50 -96 -129 -148 -154 -303 -264 -541 -383 -61 -31 -115
-63 -120 -72 -5 -9 -14 -15 -20 -13 -8 3 -378 337 -426 385 -9 9 -15 21 -13
28 2 6 77 50 168 97 196 102 315 175 452 277 115 85 275 236 349 330 28 35 55
61 61 59 6 -2 51 -127 99 -278z m2835 -72 c28 -50 97 -179 153 -285 201 -383
330 -567 489 -697 33 -27 61 -55 61 -62 0 -12 -5 -14 -277 -113 l-172 -62 -48
35 c-81 60 -197 187 -266 292 -36 55 -122 208 -192 340 -70 132 -131 244 -136
250 -5 5 -9 17 -9 27 0 21 315 368 333 368 7 0 35 -42 64 -93z m-4219 -272
c218 -199 198 -159 160 -330 -29 -129 -72 -243 -140 -377 -78 -154 -160 -269
-285 -399 -78 -80 -103 -113 -103 -133 0 -17 -5 -26 -16 -26 -8 0 -123 25
-256 55 -132 30 -242 55 -244 55 -2 0 -8 9 -14 20 -10 18 2 34 97 133 313 326
483 666 579 1155 2 12 10 22 17 22 8 0 100 -79 205 -175z m2436 47 c3 -5 -8
-71 -24 -148 -15 -76 -33 -165 -40 -196 -11 -56 -13 -58 -52 -68 -165 -45
-416 -55 -568 -23 l-85 18 -47 145 c-57 174 -74 238 -66 246 4 3 30 1 58 -5
179 -38 452 -33 680 13 137 28 137 28 144 18z m173 -90 c142 -143 275 -225
543 -337 83 -35 146 -67 148 -76 3 -18 -234 -279 -254 -279 -28 0 -238 90
-319 137 -135 77 -243 175 -298 270 -4 6 9 89 29 185 39 188 41 198 48 198 3
0 49 -44 103 -98z m-1045 -188 c32 -98 58 -191 58 -205 0 -21 -20 -46 -85
-107 -99 -94 -196 -160 -347 -237 -82 -43 -107 -60 -110 -78 -2 -13 -10 -22
-20 -21 -27 2 -298 255 -298 279 0 32 9 39 136 104 216 110 413 253 535 389
30 34 58 60 64 58 5 -1 36 -83 67 -182z m2226 164 c5 -7 64 -115 130 -239 192
-361 259 -460 400 -589 49 -44 73 -73 67 -79 -6 -5 -124 -50 -263 -100 l-254
-91 -46 39 c-69 57 -143 138 -189 206 -48 72 -243 433 -243 451 0 17 361 414
376 414 6 0 16 -6 22 -12z m-3333 -348 c110 -100 210 -192 222 -205 l22 -25
-25 -92 c-53 -198 -147 -366 -288 -515 -84 -89 -90 -97 -88 -134 2 -21 -1 -39
-5 -39 -4 1 -138 31 -298 68 -363 84 -352 73 -216 219 212 227 359 495 427
781 27 112 31 122 42 122 4 0 98 -81 207 -180z m5739 14 c3 -9 6 -68 6 -132 1
-327 65 -712 251 -1507 135 -575 142 -615 115 -615 -21 0 -559 130 -575 139
-16 9 -29 41 -143 336 -147 382 -222 624 -264 860 -27 152 -26 447 3 576 39
172 10 148 313 259 146 54 270 98 276 99 7 1 15 -6 18 -15z m-3714 -79 c108
-109 205 -170 405 -256 61 -25 110 -51 110 -57 0 -13 -222 -259 -240 -266 -14
-5 -158 56 -235 100 -55 32 -110 80 -164 143 l-28 33 27 137 c42 211 46 231
54 231 3 0 36 -29 71 -65z m-140 48 c1 -38 -75 -370 -86 -379 -19 -15 -148
-34 -222 -34 -31 1 -95 7 -142 13 l-85 13 -57 179 c-64 205 -64 212 12 193 65
-17 378 -13 460 5 75 17 120 20 120 10z m-682 -110 c5 -10 33 -94 62 -188 l53
-170 -61 -56 c-33 -30 -97 -75 -141 -100 -133 -73 -141 -78 -141 -97 0 -10 -6
-26 -13 -36 -11 -16 -25 -6 -147 105 -74 67 -139 131 -143 143 -18 44 7 73
101 120 119 60 252 151 337 230 39 36 73 65 77 66 4 0 11 -8 16 -17z m1790
-163 c122 -226 169 -297 264 -395 62 -63 75 -82 65 -92 -13 -13 -311 -123
-333 -123 -23 0 -151 133 -196 205 -78 123 -170 304 -161 319 23 39 240 265
253 263 8 -1 57 -81 108 -177z m2105 83 c3 -5 -5 -48 -16 -98 -18 -77 -21
-121 -21 -310 0 -188 3 -237 22 -335 49 -246 125 -487 276 -876 80 -206 95
-254 80 -254 -15 0 -591 141 -611 149 -16 7 -39 56 -93 193 -172 434 -240 683
-256 933 -11 166 27 387 70 406 27 13 529 197 538 198 4 1 9 -2 11 -6z m-4647
-204 c102 -94 144 -138 144 -154 0 -29 -31 -118 -65 -185 -39 -78 -94 -156
-159 -225 -53 -56 -56 -63 -51 -96 4 -21 3 -39 -2 -42 -4 -3 -93 15 -198 39
-131 30 -193 48 -202 60 -26 36 -15 64 57 141 143 153 262 375 304 566 4 15
11 27 17 27 6 0 75 -59 155 -131z m2204 -156 c84 -155 124 -215 193 -286 33
-35 54 -64 50 -73 -3 -8 -6 -14 -7 -14 -1 0 -70 -25 -152 -55 -145 -53 -184
-63 -184 -47 0 4 -26 34 -57 67 -52 54 -163 235 -163 265 0 17 233 271 245
267 5 -2 39 -57 75 -124z m1795 85 c-30 -184 -33 -307 -9 -467 29 -203 98
-436 233 -785 34 -88 58 -163 54 -167 -10 -9 -504 109 -519 125 -17 16 -146
360 -184 486 -42 144 -56 209 -70 325 -15 126 0 306 29 353 9 14 423 170 455
171 16 1 18 -4 11 -41z m-2515 -32 c64 -60 185 -131 278 -164 17 -6 32 -16 32
-22 0 -19 -162 -190 -180 -190 -38 0 -165 73 -213 122 l-50 52 23 120 c24 128
29 146 37 146 3 0 36 -29 73 -64z m-149 35 c8 -1 -45 -259 -55 -269 -4 -4 -67
-7 -139 -7 l-131 0 -40 127 c-21 69 -37 132 -34 140 4 10 45 13 199 12 107 -1
197 -2 200 -3z m-4074 -97 c90 -21 167 -40 173 -44 14 -8 70 -201 108 -370
113 -496 100 -933 -39 -1326 -56 -160 -73 -191 -110 -202 -80 -26 -511 -142
-525 -142 -11 0 -14 6 -11 18 4 9 26 76 51 147 186 544 178 1130 -25 1843 -23
78 -39 148 -36 156 5 11 28 8 129 -15 68 -16 196 -45 285 -65z m3632 -1 c5
-10 25 -69 44 -132 l36 -114 -28 -27 c-16 -14 -56 -41 -89 -58 -52 -28 -61
-37 -69 -70 -6 -25 -14 -37 -26 -37 -9 0 -58 38 -108 84 -90 83 -91 85 -86
123 7 52 17 62 107 108 42 22 103 62 136 89 32 27 62 50 66 50 4 1 11 -7 17
-16z m-539 -156 c82 -75 130 -126 130 -138 0 -36 -59 -136 -114 -197 -53 -56
-55 -61 -46 -93 14 -47 13 -59 -6 -59 -22 0 -324 69 -351 80 -14 6 -27 25 -34
50 l-12 41 45 47 c90 93 173 227 208 337 17 52 19 57 35 53 8 -2 73 -56 145
-121z m3099 12 c-32 -207 23 -493 171 -874 32 -82 54 -154 50 -159 -5 -4 -137
22 -297 61 l-288 68 -27 55 c-43 87 -125 346 -144 454 -16 94 -16 234 1 277 7
20 525 212 538 200 4 -4 2 -41 -4 -82z m-5624 15 c159 -37 300 -72 311 -80 12
-7 24 -23 27 -36 3 -13 21 -86 40 -163 62 -243 77 -361 78 -575 0 -227 -42
-464 -111 -625 -12 -27 -25 -68 -28 -89 l-7 -39 -300 -83 c-165 -46 -308 -84
-319 -84 -13 0 -16 5 -11 18 4 9 27 76 50 147 92 273 129 568 107 856 -15 199
-50 401 -103 606 -53 201 -55 213 -38 213 8 0 144 -30 304 -66z m4039 -102
c31 -65 103 -176 135 -206 33 -31 39 -57 19 -73 -14 -11 -214 -83 -229 -83 -5
0 -9 8 -9 18 0 10 -14 31 -31 48 -35 33 -89 123 -89 149 0 22 159 195 174 189
7 -3 21 -22 30 -42z m-3355 -56 c132 -30 237 -59 241 -67 12 -18 57 -205 77
-319 11 -64 17 -151 17 -265 0 -195 -14 -289 -71 -449 -34 -98 -39 -121 -31
-160 3 -17 -25 -27 -242 -88 -135 -37 -256 -67 -270 -66 -32 4 -31 16 14 143
74 211 106 463 87 703 -13 174 -30 278 -77 467 -19 76 -32 145 -30 152 4 8 14
11 28 8 13 -3 128 -29 257 -59z m2879 25 c26 -21 75 -53 110 -70 34 -17 62
-37 62 -43 0 -19 -72 -88 -93 -88 -29 0 -79 29 -123 72 -40 38 -41 41 -33 81
17 78 19 87 25 87 3 0 26 -18 52 -39z m-128 2 c0 -12 -5 -45 -11 -73 l-11 -50
-62 0 c-35 0 -67 -5 -74 -12 -16 -16 -26 -4 -46 56 -19 57 -20 78 -6 92 6 6
55 10 110 10 96 -1 100 -2 100 -23z m1592 -160 c6 -156 34 -281 108 -477 23
-60 37 -113 33 -117 -5 -5 -95 13 -201 38 -154 38 -196 51 -204 67 -21 39 -77
215 -92 289 -18 84 -21 184 -7 206 10 16 302 128 337 130 21 1 22 -4 26 -136z
m-1841 41 c25 -70 23 -78 -18 -105 -26 -17 -40 -36 -47 -63 -6 -22 -16 -41
-22 -43 -18 -6 -104 77 -103 100 1 59 23 91 89 128 36 21 69 37 74 35 5 -1 18
-24 27 -52z m-364 -50 c103 -95 103 -95 40 -161 -29 -31 -30 -33 -17 -78 7
-25 10 -48 6 -52 -7 -8 -257 46 -273 59 -7 5 -15 29 -18 53 -7 40 -4 46 39
100 26 31 61 81 77 111 17 30 36 54 42 54 7 0 54 -39 104 -86z m-1524 1 c154
-35 285 -69 292 -75 7 -6 23 -59 36 -118 19 -87 23 -136 23 -267 0 -167 -13
-246 -64 -375 l-20 -50 22 -19 c11 -11 18 -26 15 -34 -4 -11 -572 -177 -606
-177 -6 0 -15 8 -20 19 -8 14 -3 39 19 99 58 160 74 265 74 487 0 203 -14 317
-59 485 -18 68 -19 90 -2 90 6 0 137 -29 290 -65z m2504 -27 c6 -13 27 -44 47
-71 48 -63 48 -93 -1 -113 -53 -22 -85 -23 -88 -1 -2 9 -17 33 -34 53 -17 19
-31 42 -31 50 0 20 68 104 85 104 6 0 16 -10 22 -22z m797 6 c3 -9 6 -44 6
-79 0 -65 33 -208 71 -309 11 -32 18 -60 15 -64 -6 -5 -218 41 -333 74 l-51
14 -23 68 c-13 39 -23 93 -23 131 l-1 63 155 58 c85 32 160 59 166 59 7 1 15
-6 18 -15z m-1207 -10 c9 -23 -14 -64 -36 -64 -11 0 -23 -4 -26 -10 -23 -38
-56 22 -36 66 9 20 18 24 51 24 28 0 43 -5 47 -16z m114 0 c7 -8 30 -24 51
-35 42 -22 47 -38 19 -63 -18 -16 -22 -16 -48 -2 -48 27 -73 53 -73 78 0 40
26 52 51 22z m-1621 -104 c96 -22 178 -44 183 -49 13 -13 36 -159 37 -233 0
-76 -20 -188 -48 -269 l-20 -57 29 -28 c23 -22 27 -30 17 -39 -7 -7 -92 -33
-188 -59 -96 -26 -182 -49 -192 -52 -9 -3 -29 6 -44 19 l-28 24 27 89 c14 49
31 120 38 158 15 89 6 346 -16 445 -18 80 -15 105 12 97 10 -3 97 -24 193 -46z
m1353 14 c12 -23 12 -33 0 -68 -8 -22 -20 -48 -27 -56 -17 -20 -18 -140 -1
-160 7 -8 20 -31 28 -51 10 -24 23 -38 41 -43 21 -5 26 -12 26 -37 0 -37 -16
-44 -69 -29 -37 10 -44 17 -70 73 -18 39 -33 94 -40 150 -11 83 -10 90 9 117
11 16 27 48 36 71 22 64 45 75 67 33z m-229 -49 c21 -19 40 -45 42 -57 1 -13
5 -42 9 -64 4 -25 3 -44 -3 -48 -13 -8 -113 14 -129 28 -7 6 -16 30 -21 53 -9
39 -7 46 20 83 16 22 33 40 36 40 4 -1 24 -16 46 -35z m664 -18 c25 -38 29
-75 7 -83 -21 -8 -19 -21 4 -27 24 -6 38 -62 21 -82 -30 -36 -60 3 -74 97 -4
26 -11 50 -17 53 -14 9 -11 37 8 57 22 24 24 23 51 -15z m522 10 c0 -13 9 -58
20 -101 12 -43 19 -81 16 -83 -4 -4 -127 21 -229 48 -41 11 -68 52 -47 73 13
13 198 84 223 85 11 1 17 -6 17 -22z m-1850 -63 c100 -22 170 -43 178 -52 17
-22 15 -134 -4 -207 -28 -110 -28 -108 5 -133 47 -34 40 -49 -36 -71 -177 -51
-291 -81 -309 -81 -11 0 -33 13 -49 30 l-28 29 22 73 c28 88 39 291 22 382
-12 64 -8 79 17 72 10 -2 91 -21 182 -42z m394 -91 c65 -15 120 -33 123 -39 3
-7 -2 -37 -10 -65 l-16 -52 35 -41 c19 -22 33 -45 31 -50 -4 -11 -25 -18 -180
-60 l-88 -24 -30 25 c-45 38 -50 54 -34 108 8 26 15 85 15 130 0 45 3 85 7 88
10 11 19 9 147 -20z m1121 -6 c37 -10 53 -20 63 -40 12 -25 10 -29 -48 -87
l-60 -60 -40 36 c-22 20 -40 41 -40 46 0 5 14 17 30 26 17 10 28 23 25 30 -3
8 -8 25 -11 38 -7 29 5 30 81 11z m-786 -117 c23 -30 40 -59 38 -65 -4 -10
-99 -43 -128 -44 -8 -1 -30 19 -48 44 -27 38 -31 50 -25 82 10 58 17 62 73 49
42 -9 55 -19 90 -66z m1062 51 c115 -28 149 -45 149 -73 0 -5 -14 -17 -32 -26
-80 -43 -145 -126 -163 -209 -4 -19 -13 -33 -21 -33 -13 0 -121 92 -171 146
-19 21 -20 28 -11 54 11 32 57 73 96 85 21 6 23 11 17 46 -4 23 -3 39 3 39 5
0 65 -13 133 -29z m-514 -3 c-2 -7 4 -23 15 -34 29 -33 15 -68 -39 -99 -25
-14 -47 -25 -48 -25 -2 0 -8 13 -13 29 -11 32 -7 43 26 60 12 6 29 27 37 46
13 32 33 52 22 23z m-312 -18 c3 -5 1 -10 -4 -10 -6 0 -11 5 -11 10 0 6 2 10
4 10 3 0 8 -4 11 -10z m1270 -85 c132 -31 155 -40 155 -60 0 -8 -27 -28 -62
-46 -77 -39 -156 -117 -191 -189 -25 -52 -48 -130 -62 -212 -3 -21 -10 -38
-15 -38 -5 0 -67 52 -137 116 -143 130 -146 136 -118 230 21 73 78 135 151
165 49 21 54 26 49 47 -9 37 1 41 63 27 31 -8 107 -26 167 -40z m-1111 -31 c9
-8 16 -26 16 -40 0 -20 -5 -24 -28 -24 -15 0 -42 -4 -60 -9 -38 -11 -49 1 -38
43 4 17 16 27 43 34 52 14 50 14 67 -4z m304 -24 c36 -32 42 -43 37 -62 -9
-28 -1 -21 -60 -51 -27 -14 -67 -39 -89 -56 -21 -17 -42 -29 -46 -26 -10 6
-40 93 -40 117 0 19 73 78 96 78 8 0 19 9 26 20 18 28 27 26 76 -20z m1331
-72 c52 -13 96 -29 99 -36 2 -6 -31 -28 -75 -49 -104 -50 -224 -167 -271 -266
-34 -71 -65 -185 -81 -301 -6 -38 -14 -73 -19 -78 -10 -10 -273 225 -286 257
-13 31 25 208 59 278 16 32 50 78 77 103 44 41 156 104 186 104 6 0 12 11 12
23 0 13 2 26 5 29 6 5 99 -15 294 -64z m-1954 32 c18 -20 18 -22 -30 -70 -69
-70 -94 -65 -110 21 l-7 36 54 15 c71 21 72 21 93 -2z m128 -43 c5 -14 -16
-134 -26 -143 -6 -7 -107 44 -107 53 0 4 21 29 47 55 47 48 76 60 86 35z
m-313 -58 c8 -31 20 -62 27 -70 9 -11 -8 -34 -87 -116 -54 -57 -105 -103 -114
-103 -18 0 -31 22 -41 70 -4 19 -23 72 -42 118 -23 54 -32 87 -26 93 14 14
214 68 243 66 21 -2 27 -10 40 -58z m571 -14 c28 -80 26 -85 -28 -85 -27 0
-77 -7 -112 -15 -89 -21 -92 -19 -76 55 7 34 17 66 21 70 16 16 79 29 128 27
l49 -2 18 -50z m440 -27 c57 -52 89 -89 89 -102 0 -16 -23 -32 -103 -73 -63
-32 -127 -74 -164 -108 -34 -30 -67 -55 -75 -55 -17 0 -91 230 -82 253 9 23
81 77 148 110 33 17 65 36 69 44 4 7 13 13 18 13 6 0 51 -37 100 -82z m1581 2
c299 -72 288 -69 288 -81 0 -5 -36 -27 -80 -48 -147 -73 -243 -153 -318 -265
-92 -138 -139 -284 -171 -535 -14 -112 -20 -136 -33 -136 -15 0 -182 145 -356
310 l-74 69 7 66 c23 229 85 393 184 490 56 54 162 117 249 148 17 6 32 18 32
26 0 9 4 16 10 16 5 0 124 -27 262 -60z m-2913 -52 c17 -35 40 -99 52 -143 12
-44 26 -90 32 -103 10 -21 -1 -34 -128 -162 -77 -77 -146 -140 -153 -140 -15
0 -22 16 -57 140 -29 102 -84 226 -135 302 -18 26 -30 53 -28 60 4 12 323 105
365 107 17 1 28 -12 52 -61z m547 -33 c35 -21 44 -31 44 -53 -1 -34 -45 -251
-53 -259 -4 -3 -30 10 -59 29 -69 46 -101 61 -168 83 -30 10 -59 21 -64 26 -6
5 32 51 90 109 93 96 101 101 132 96 19 -3 53 -17 78 -31z m3003 -69 c118 -29
216 -57 218 -62 2 -5 -26 -22 -62 -38 -146 -63 -317 -201 -412 -332 -116 -160
-186 -397 -226 -759 -10 -99 -15 -120 -29 -120 -18 0 -363 307 -372 331 -9 23
33 327 60 433 13 53 45 138 70 190 38 76 62 110 128 176 87 88 159 133 311
197 49 20 92 37 95 37 3 0 101 -24 219 -53z m-3984 -37 c61 -91 120 -234 152
-370 l26 -111 -151 -151 c-83 -83 -154 -148 -157 -145 -3 3 -19 55 -35 114
-57 217 -141 403 -245 542 -30 40 -55 77 -55 82 0 5 17 14 38 20 282 77 359
96 369 93 7 -3 33 -36 58 -74z m1363 63 c14 -9 94 -241 87 -252 -3 -4 -51 -8
-107 -8 -76 -1 -129 -7 -203 -26 -54 -14 -102 -23 -106 -18 -9 9 39 253 52
267 28 30 243 58 277 37z m702 -146 c72 -65 129 -123 127 -129 -2 -6 -62 -41
-133 -77 -152 -76 -232 -131 -334 -229 -40 -39 -77 -68 -81 -64 -10 11 -109
316 -109 337 0 50 118 147 275 227 60 31 113 56 117 55 4 0 66 -54 138 -120z
m2506 -21 c302 -73 306 -74 299 -85 -3 -5 -51 -32 -106 -60 -256 -128 -426
-294 -546 -535 -96 -191 -143 -390 -190 -803 -9 -83 -20 -157 -24 -164 -9 -14
-10 -13 -269 223 l-201 183 5 45 c51 418 72 530 125 666 72 188 203 349 365
449 71 45 275 136 302 136 7 0 115 -25 240 -55z m-5065 3 c93 -111 173 -257
229 -413 33 -95 80 -280 80 -317 0 -27 -425 -458 -452 -458 -24 0 -165 214
-244 373 -36 71 -104 224 -150 340 -47 116 -99 237 -115 270 -17 32 -28 64
-26 70 4 12 575 175 617 176 19 1 36 -11 61 -41z m1183 -34 c77 -20 204 -85
242 -125 l28 -30 -34 -176 c-19 -97 -40 -182 -46 -190 -8 -12 -24 -5 -90 42
-124 89 -210 129 -363 169 -47 12 -86 26 -88 31 -3 11 267 295 281 295 4 0 36
-7 70 -16z m4544 -129 c125 -30 237 -57 250 -60 12 -3 22 -9 22 -14 0 -4 -44
-29 -97 -55 -335 -162 -576 -413 -706 -737 -88 -218 -132 -441 -190 -954 -10
-90 -15 -110 -28 -110 -9 0 -110 85 -223 188 l-207 189 6 41 c3 23 17 139 31
257 50 423 111 626 251 845 56 87 195 225 288 287 101 67 325 175 368 178 4 0
109 -25 235 -55z m-6466 -2 c26 -30 64 -112 154 -335 105 -259 199 -448 296
-592 40 -59 80 -119 88 -132 15 -23 12 -27 -180 -219 -107 -107 -198 -195
-202 -195 -3 0 -16 44 -28 98 -110 483 -288 847 -573 1165 -41 46 -66 82 -61
87 8 8 452 136 480 139 6 1 18 -7 26 -16z m2704 -4 c16 -17 125 -345 117 -353
-3 -3 -58 -2 -122 1 -132 6 -209 -3 -393 -49 -70 -17 -130 -29 -134 -26 -9 10
65 361 79 375 7 8 65 27 128 43 96 26 129 30 211 27 73 -2 102 -7 114 -18z
m929 -117 c74 -68 135 -129 135 -136 0 -7 -21 -21 -47 -31 -72 -27 -217 -101
-305 -156 -118 -73 -193 -133 -295 -238 -51 -52 -96 -91 -100 -87 -5 4 -33 87
-64 184 -44 138 -54 181 -46 197 33 64 206 210 334 281 74 42 234 114 245 111
4 -1 68 -57 143 -125z m-4144 -99 c283 -294 473 -672 585 -1163 13 -58 24
-118 24 -135 0 -26 -32 -62 -227 -257 -125 -126 -233 -228 -240 -228 -7 0 -15
10 -18 23 -146 677 -379 1157 -749 1544 -59 62 -95 108 -90 113 9 9 595 177
625 179 8 1 49 -34 90 -76z m2189 -19 c47 -13 126 -44 175 -69 85 -42 220
-139 237 -169 4 -8 -8 -92 -27 -187 -44 -223 -44 -219 -56 -219 -6 0 -47 28
-92 63 -107 83 -162 117 -277 171 -95 45 -264 98 -350 111 -64 9 -80 15 -80
28 0 6 66 78 148 160 l147 147 45 -6 c25 -4 83 -17 130 -30z m2360 -250 c113
-102 206 -191 208 -198 2 -8 -20 -23 -55 -36 -72 -29 -290 -136 -362 -179
-193 -115 -387 -271 -511 -415 -41 -47 -80 -86 -87 -86 -10 0 -82 210 -169
492 l-17 56 37 51 c91 123 315 300 500 393 72 37 232 106 246 108 3 0 98 -84
210 -186z m-5257 59 c291 -284 517 -663 662 -1113 46 -142 113 -407 121 -477
l7 -52 -208 -213 c-114 -117 -214 -217 -221 -221 -19 -11 -23 1 -79 233 -166
690 -454 1233 -873 1648 -70 69 -101 107 -95 113 10 10 551 166 582 168 7 1
54 -38 104 -86z m3971 16 c42 -6 82 -16 90 -23 17 -13 132 -363 123 -373 -4
-3 -44 -1 -89 5 -179 25 -342 9 -623 -63 -105 -27 -172 -40 -176 -33 -9 14 69
381 84 394 15 14 234 72 337 89 97 17 162 18 254 4z m-1461 -180 c253 -51 486
-165 647 -316 l64 -60 -60 -292 c-32 -161 -62 -297 -65 -303 -4 -6 -48 24
-105 72 -282 239 -622 391 -982 440 -66 9 -92 17 -92 27 0 7 97 113 216 233
246 250 214 233 377 199z m3200 -306 c94 -86 176 -163 180 -170 6 -10 -5 -19
-38 -33 -293 -126 -465 -217 -654 -348 -183 -127 -378 -304 -500 -455 -30 -37
-60 -67 -66 -67 -15 0 -168 476 -159 493 22 37 145 175 218 245 152 143 324
261 539 369 129 65 264 122 290 123 9 0 95 -71 190 -157z m-1637 43 c150 -22
135 -2 230 -301 81 -253 92 -295 77 -295 -5 0 -42 7 -83 15 -250 49 -518 24
-942 -90 -180 -49 -198 -51 -198 -32 0 13 107 542 115 568 8 24 317 107 500
134 120 17 192 18 301 1z m-1954 -270 c338 -69 642 -223 880 -446 l83 -77 -53
-259 c-29 -142 -56 -262 -61 -267 -5 -5 -37 17 -72 50 -285 263 -621 449 -983
544 -111 28 -291 62 -398 74 -34 4 -58 11 -58 18 0 7 87 99 193 205 l192 194
77 -6 c42 -3 132 -17 200 -30z m4057 -197 c122 -111 220 -207 218 -213 -2 -6
-53 -31 -113 -56 -305 -128 -606 -298 -839 -475 -196 -149 -419 -365 -543
-526 -20 -27 -44 -47 -52 -46 -14 2 -191 528 -192 574 -1 42 198 267 356 402
229 196 463 338 786 478 80 34 148 63 151 63 4 0 107 -91 228 -201z m-1905
-164 c157 -27 140 -7 225 -276 41 -129 75 -238 75 -244 1 -13 -15 -12 -159 14
-162 29 -415 30 -601 2 -152 -23 -361 -70 -594 -135 -97 -27 -168 -42 -173
-37 -12 12 86 499 104 516 17 16 353 107 519 140 230 47 414 53 604 20z
m-2707 -80 c508 -67 950 -272 1307 -607 l89 -83 -62 -305 c-71 -347 -70 -342
-81 -338 -4 2 -58 48 -120 103 -473 423 -985 652 -1640 733 -92 12 -135 21
-135 30 0 7 103 118 228 247 261 268 217 245 414 220z m5108 -207 c116 -105
213 -197 217 -204 5 -7 -24 -39 -83 -89 -49 -42 -199 -183 -332 -313 -502
-488 -696 -640 -1012 -796 -152 -76 -374 -159 -398 -151 -7 3 -55 138 -106
300 l-94 294 18 28 c82 127 377 429 545 559 265 205 556 372 900 515 63 26
120 48 125 48 6 0 105 -86 220 -191z m-2338 -259 c136 -18 253 -50 268 -73 19
-32 187 -565 183 -584 -3 -15 -17 -17 -108 -14 -198 6 -478 -23 -905 -93 -514
-84 -852 -122 -875 -99 -12 12 110 638 126 654 13 12 390 115 568 156 83 18
198 40 256 48 127 17 379 20 487 5z m-3284 -83 c549 -69 994 -242 1402 -547
164 -122 355 -300 355 -329 0 -43 -112 -556 -124 -568 -11 -12 -32 3 -122 85
-290 262 -535 429 -844 576 -363 173 -805 293 -1189 322 -100 8 -121 13 -121
28 0 6 98 110 217 229 l218 218 45 0 c25 0 98 -7 163 -14z m3764 -660 c16 -16
176 -523 170 -540 -5 -11 -22 -10 -102 10 -194 47 -304 58 -560 58 -392 0
-662 -48 -1350 -238 -110 -31 -203 -52 -207 -48 -9 9 97 551 110 564 5 5 69
13 143 18 181 14 318 32 679 90 392 63 594 90 750 99 153 10 351 3 367 -13z"/>
</g>
</svg>
