<svg width="39" height="40" viewBox="0 0 39 40" fill="none" xmlns="http://www.w3.org/2000/svg">
<path d="M33.461 16.2517C33.4578 16.2125 33.454 16.1734 33.4496 16.1344C33.324 14.4533 32.527 12.8792 31.2188 11.7286C29.9105 10.5779 28.188 9.93598 26.3975 9.93171H12.2308C10.4151 9.92398 8.66643 10.5767 7.34995 11.7537C6.03348 12.9306 5.25098 14.5407 5.16588 16.2477C5.15171 16.353 5.14746 16.4624 5.14746 16.585V25.265C5.14746 26.4984 5.67588 27.7024 6.59529 28.5664C7.52861 29.439 8.79019 29.9297 10.1058 29.9317C12.6558 29.9317 13.6531 28.5984 15.0641 25.9317C15.271 25.5424 16.4695 23.265 19.3141 23.265C22.1418 23.265 23.3559 25.541 23.5641 25.9317C24.9865 28.5984 25.9725 29.9317 28.5225 29.9317C29.8329 29.9317 31.1121 29.4344 32.0301 28.569C32.9573 27.6906 33.4787 26.5033 33.4808 25.265V16.5984C33.4808 16.4717 33.4751 16.3584 33.461 16.2517ZM12.2308 19.3064C11.8535 19.3144 11.4783 19.2514 11.1272 19.1211C10.7761 18.9908 10.4562 18.7957 10.1863 18.5474C9.9164 18.2992 9.70192 18.0026 9.55546 17.6752C9.40899 17.3479 9.3335 16.9963 9.33341 16.6411C9.33331 16.2858 9.40862 15.9342 9.55491 15.6068C9.7012 15.2793 9.91552 14.9827 10.1853 14.7343C10.4551 14.4859 10.7748 14.2907 11.1259 14.1602C11.4769 14.0297 11.8521 13.9665 12.2294 13.9744C12.9697 13.9898 13.6741 14.2773 14.192 14.7755C14.7098 15.2736 14.9999 15.9428 15.0001 16.6397C15.0003 17.3366 14.7106 18.0059 14.193 18.5043C13.6754 19.0027 12.9711 19.2906 12.2308 19.3064ZM26.3975 12.6397C26.7732 12.6397 27.1335 12.7802 27.3992 13.0302C27.6649 13.2803 27.8141 13.6194 27.8141 13.973C27.8141 14.3267 27.6649 14.6658 27.3992 14.9159C27.1335 15.1659 26.7732 15.3064 26.3975 15.3064C26.0217 15.3064 25.6614 15.1659 25.3957 14.9159C25.13 14.6658 24.9808 14.3267 24.9808 13.973C24.9808 13.6194 25.13 13.2803 25.3957 13.0302C25.6614 12.7802 26.0217 12.6397 26.3975 12.6397ZM23.5641 17.973C23.1884 17.973 22.8281 17.8326 22.5624 17.5825C22.2967 17.3325 22.1475 16.9933 22.1475 16.6397C22.1475 16.2861 22.2967 15.9469 22.5624 15.6969C22.8281 15.4469 23.1884 15.3064 23.5641 15.3064C23.9399 15.3064 24.3002 15.4469 24.5659 15.6969C24.8315 15.9469 24.9808 16.2861 24.9808 16.6397C24.9808 16.9933 24.8315 17.3325 24.5659 17.5825C24.3002 17.8326 23.9399 17.973 23.5641 17.973ZM26.3975 20.6397C26.0217 20.6397 25.6614 20.4992 25.3957 20.2492C25.13 19.9991 24.9808 19.66 24.9808 19.3064C24.9808 18.9528 25.13 18.6136 25.3957 18.3636C25.6614 18.1135 26.0217 17.973 26.3975 17.973C26.7732 17.973 27.1335 18.1135 27.3992 18.3636C27.6649 18.6136 27.8141 18.9528 27.8141 19.3064C27.8141 19.66 27.6649 19.9991 27.3992 20.2492C27.1335 20.4992 26.7732 20.6397 26.3975 20.6397ZM29.2308 17.973C28.8551 17.973 28.4947 17.8326 28.2291 17.5825C27.9634 17.3325 27.8141 16.9933 27.8141 16.6397C27.8141 16.2861 27.9634 15.9469 28.2291 15.6969C28.4947 15.4469 28.8551 15.3064 29.2308 15.3064C29.6065 15.3064 29.9669 15.4469 30.2325 15.6969C30.4982 15.9469 30.6475 16.2861 30.6475 16.6397C30.6475 16.9933 30.4982 17.3325 30.2325 17.5825C29.9669 17.8326 29.6065 17.973 29.2308 17.973Z" fill="#F9FEFD"/>
</svg>
