<svg width="39" height="39" viewBox="0 0 39 39" fill="none" xmlns="http://www.w3.org/2000/svg">
<path d="M7.00102 12.6217C6.99446 12.7152 7.01963 12.8086 7.075 12.896C7.13037 12.9835 7.21476 13.0631 7.32298 13.1302C7.4312 13.1972 7.56096 13.2501 7.70429 13.2857C7.84762 13.3213 8.00148 13.3388 8.15642 13.3371H12.1116C12.7732 13.3371 13.3006 13.0098 13.3869 12.613C13.8184 10.7128 15.9758 9.32821 19.8207 9.32821C23.1096 9.32821 26.1203 10.3217 26.1203 12.7115C26.1203 14.5508 24.3273 15.3966 21.4939 16.6827C18.2674 18.0992 15.7121 19.7531 15.8943 22.4383L15.9087 23.0668C15.9137 23.2569 16.0422 23.4381 16.2664 23.5714C16.4906 23.7047 16.7926 23.7794 17.1072 23.7794H20.9953C21.3132 23.7794 21.618 23.7031 21.8428 23.5673C22.0676 23.4315 22.1939 23.2473 22.1939 23.0553V22.7511C22.1939 20.6713 23.5027 20.066 27.036 18.4467C29.9557 17.1056 33 15.6168 33 12.4913C33 8.11453 26.8826 6 20.1851 6C14.1108 6 7.45647 7.709 7.00102 12.6217ZM14.4656 29.3148C14.4656 30.8587 16.5031 32 19.3077 32C22.2274 32 24.2362 30.8587 24.2362 29.3148C24.2362 27.7159 22.2226 26.592 19.303 26.592C16.5031 26.592 14.4656 27.7159 14.4656 29.3148Z" fill="#F9FEFD"/>
</svg>
