<svg width="39" height="40" viewBox="0 0 39 40" fill="none" xmlns="http://www.w3.org/2000/svg">
<path d="M4.31421 11.4954V8.38431C4.31421 7.52875 4.58861 6.79608 5.13741 6.18631C5.68621 5.57653 6.34514 5.27216 7.11421 5.2732H29.5142C30.2842 5.2732 30.9436 5.57808 31.4924 6.18786C32.0412 6.79764 32.3151 7.52979 32.3142 8.38431V11.4954H29.5142V8.38431H7.11421V11.4954H4.31421ZM12.7142 33.2732V30.1621H7.11421C6.34421 30.1621 5.68481 29.8572 5.13601 29.2474C4.58721 28.6376 4.31328 27.9055 4.31421 27.051V23.9399H7.11421V27.051H29.5142V23.9399H32.3142V27.051C32.3142 27.9065 32.0398 28.6392 31.491 29.249C30.9422 29.8587 30.2833 30.1631 29.5142 30.1621H23.9142V33.2732H12.7142ZM8.23421 17.7176L11.8742 13.6732L9.91421 11.4954L4.31421 17.7176L9.91421 23.9399L11.8742 21.7621L8.23421 17.7176ZM28.3942 17.7176L24.7542 21.7621L26.7142 23.9399L32.3142 17.7176L26.7142 11.4954L24.7542 13.6732L28.3942 17.7176Z" fill="#F9FEFD"/>
</svg>
