<svg width="39" height="39" viewBox="0 0 39 39" fill="none" xmlns="http://www.w3.org/2000/svg">
<path fill-rule="evenodd" clip-rule="evenodd" d="M16.7463 5.24744H19.7562C22.3757 5.24744 24.4508 5.24744 26.0741 5.45377C27.7444 5.66684 29.0969 6.11456 30.1644 7.12327C30.3532 7.315 30.456 7.5686 30.4511 7.83062C30.4462 8.09265 30.334 8.34265 30.1382 8.52796C29.9423 8.71327 29.6781 8.81941 29.4012 8.82404C29.1243 8.82866 28.8563 8.7314 28.6537 8.55274C28.0494 7.98365 27.2228 7.64112 25.7891 7.45906C24.3254 7.27296 22.3943 7.27027 19.6764 7.27027H16.8261C14.1082 7.27027 12.1785 7.27296 10.712 7.45906C9.27972 7.64112 8.45312 7.98365 7.85026 8.55409C7.24741 9.12453 6.88541 9.90669 6.69301 11.2633C6.49634 12.6496 6.49349 14.4756 6.49349 17.0473V22.4415C6.49349 25.0132 6.49634 26.8405 6.69301 28.2268C6.88541 29.5821 7.24741 30.3642 7.85026 30.9347C8.45312 31.5051 9.27972 31.8476 10.7135 32.0297C12.1785 32.2158 14.1082 32.2185 16.8261 32.2185H19.6764C22.3943 32.2185 24.3254 32.2158 25.7905 32.0297C27.2228 31.8476 28.0494 31.5051 28.6522 30.9347C29.6442 29.9961 29.9449 28.5383 29.9962 25.1238C30.0004 24.8555 30.117 24.5998 30.3204 24.4129C30.5237 24.226 30.7973 24.1232 31.0808 24.1272C31.3642 24.1311 31.6345 24.2414 31.832 24.4339C32.0295 24.6264 32.1381 24.8852 32.134 25.1534C32.0841 28.4264 31.8603 30.7607 30.1644 32.3655C29.0969 33.3742 27.7444 33.8219 26.0741 34.035C24.4494 34.2413 22.3757 34.2413 19.7562 34.2413H16.7463C14.1268 34.2413 12.0517 34.2413 10.4284 34.035C8.75811 33.8219 7.40561 33.3742 6.33814 32.3655C5.27211 31.3554 4.79895 30.0756 4.57377 28.4951C4.35571 26.9578 4.35571 24.9956 4.35571 22.517V16.9718C4.35571 14.4931 4.35571 12.5296 4.57377 10.9936C4.79895 9.41312 5.27211 8.13334 6.33814 7.12327C7.40561 6.11456 8.75811 5.66684 10.4284 5.45377C12.0531 5.24744 14.1268 5.24744 16.7463 5.24744ZM26.9648 13.0637C27.3211 12.7108 27.7483 12.4288 28.2214 12.2343C28.6944 12.0399 29.2038 11.9368 29.7195 11.9312C30.2352 11.9256 30.747 12.0177 31.2246 12.2018C31.7022 12.386 32.1361 12.6587 32.5008 13.0038C32.8655 13.3489 33.1537 13.7594 33.3483 14.2114C33.543 14.6633 33.6402 15.1475 33.6343 15.6355C33.6284 16.1235 33.5195 16.6055 33.314 17.0531C33.1085 17.5007 32.8105 17.905 32.4375 18.2421L25.6622 24.6572C25.3803 24.9382 25.0805 25.2025 24.7643 25.4488C24.4366 25.6915 24.0803 25.8992 23.704 26.0691C23.3848 26.2134 23.0484 26.3186 22.5553 26.4737L19.5852 27.4109C19.2636 27.5127 18.9184 27.5277 18.5883 27.4542C18.2582 27.3806 17.9563 27.2214 17.7165 26.9945C17.4767 26.7676 17.3085 26.482 17.2307 26.1696C17.153 25.8572 17.1688 25.5306 17.2764 25.2263L18.247 22.4752L18.2669 22.4172C18.4323 21.9493 18.5434 21.6324 18.6959 21.3303C18.8753 20.9743 19.0951 20.6379 19.3515 20.327C19.5696 20.0626 19.819 19.8266 20.1881 19.4774L20.2323 19.4356L26.9648 13.0637ZM30.9268 14.4931C30.7659 14.3408 30.5748 14.2199 30.3645 14.1375C30.1542 14.055 29.9288 14.0126 29.7012 14.0126C29.4735 14.0126 29.2481 14.055 29.0378 14.1375C28.8275 14.2199 28.6365 14.3408 28.4755 14.4931L28.2161 14.7386C28.2304 14.7831 28.2461 14.833 28.2646 14.8828C28.3986 15.247 28.6537 15.7324 29.1354 16.1882C29.5617 16.5942 30.0883 16.8931 30.6675 17.0581L30.9268 16.8126C31.0878 16.6603 31.2155 16.4795 31.3027 16.2806C31.3898 16.0816 31.4347 15.8683 31.4347 15.6529C31.4347 15.4375 31.3898 15.2242 31.3027 15.0252C31.2155 14.8262 31.0878 14.6454 30.9268 14.4931ZM29.0342 18.6035C28.514 18.3447 28.0383 18.0127 27.6233 17.6191C27.2072 17.2263 26.8564 16.7762 26.5829 16.284L21.743 20.8637C21.314 21.2696 21.1629 21.4152 21.0361 21.569C20.875 21.7645 20.7368 21.9762 20.6242 22.1987C20.5358 22.3754 20.466 22.5683 20.2736 23.1131L19.7035 24.7313L20.1068 25.113L21.8171 24.5736C22.3928 24.3915 22.5966 24.3254 22.7833 24.2418C23.0185 24.1339 23.2422 24.0045 23.4489 23.8521C23.6114 23.7321 23.7653 23.5891 24.1943 23.1832L29.0342 18.6035ZM11.4816 15.6987C11.4816 15.4305 11.5942 15.1732 11.7947 14.9835C11.9952 14.7939 12.267 14.6873 12.5505 14.6873H21.8142C22.0977 14.6873 22.3696 14.7939 22.57 14.9835C22.7705 15.1732 22.8831 15.4305 22.8831 15.6987C22.8831 15.967 22.7705 16.2242 22.57 16.4139C22.3696 16.6036 22.0977 16.7101 21.8142 16.7101H12.5505C12.267 16.7101 11.9952 16.6036 11.7947 16.4139C11.5942 16.2242 11.4816 15.967 11.4816 15.6987ZM11.4816 21.0929C11.4816 20.8247 11.5942 20.5674 11.7947 20.3778C11.9952 20.1881 12.267 20.0815 12.5505 20.0815H16.1135C16.397 20.0815 16.6688 20.1881 16.8693 20.3778C17.0698 20.5674 17.1824 20.8247 17.1824 21.0929C17.1824 21.3612 17.0698 21.6184 16.8693 21.8081C16.6688 21.9978 16.397 22.1044 16.1135 22.1044H12.5505C12.267 22.1044 11.9952 21.9978 11.7947 21.8081C11.5942 21.6184 11.4816 21.3612 11.4816 21.0929ZM11.4816 26.4871C11.4816 26.2189 11.5942 25.9616 11.7947 25.772C11.9952 25.5823 12.267 25.4757 12.5505 25.4757H14.6883C14.9718 25.4757 15.2437 25.5823 15.4441 25.772C15.6446 25.9616 15.7572 26.2189 15.7572 26.4871C15.7572 26.7554 15.6446 27.0127 15.4441 27.2023C15.2437 27.392 14.9718 27.4986 14.6883 27.4986H12.5505C12.267 27.4986 11.9952 27.392 11.7947 27.2023C11.5942 27.0127 11.4816 26.7554 11.4816 26.4871Z" fill="#F9FEFD"/>
</svg>
