<svg width="39" height="39" viewBox="0 0 39 39" fill="none" xmlns="http://www.w3.org/2000/svg">
<g clip-path="url(#clip0_319_1790)">
<g clip-path="url(#clip1_319_1790)">
<path d="M19.3611 19.2067C18.8265 19.2016 18.3029 19.3318 17.8606 19.5798C17.4183 19.8278 17.0787 20.1818 16.8875 20.5941C16.6962 21.0063 16.6624 21.4571 16.7908 21.8857C16.9191 22.3143 17.2033 22.7001 17.6052 22.9912V25.0067C17.6052 25.3913 17.7902 25.7601 18.1195 26.032C18.4488 26.3039 18.8954 26.4567 19.3611 26.4567C19.8268 26.4567 20.2734 26.3039 20.6027 26.032C20.932 25.7601 21.1169 25.3913 21.1169 25.0067V22.9912C21.5188 22.7001 21.8031 22.3143 21.9314 21.8857C22.0597 21.4571 22.026 21.0063 21.8347 20.5941C21.6434 20.1818 21.3038 19.8278 20.8616 19.5798C20.4193 19.3318 19.8957 19.2016 19.3611 19.2067ZM28.1404 13.4067V10.5067C28.1404 8.58389 27.2154 6.73983 25.569 5.38019C23.9225 4.02055 21.6895 3.25671 19.3611 3.25671C17.0327 3.25671 14.7996 4.02055 13.1532 5.38019C11.5067 6.73983 10.5818 8.58389 10.5818 10.5067V13.4067C9.18474 13.4067 7.84491 13.865 6.85705 14.6808C5.86918 15.4966 5.31421 16.603 5.31421 17.7567V27.9067C5.31421 29.0604 5.86918 30.1668 6.85705 30.9826C7.84491 31.7984 9.18474 32.2567 10.5818 32.2567H28.1404C29.5374 32.2567 30.8773 31.7984 31.8651 30.9826C32.853 30.1668 33.408 29.0604 33.408 27.9067V17.7567C33.408 16.603 32.853 15.4966 31.8651 14.6808C30.8773 13.865 29.5374 13.4067 28.1404 13.4067ZM14.0935 10.5067C14.0935 9.35302 14.6485 8.24658 15.6363 7.4308C16.6242 6.61502 17.964 6.15671 19.3611 6.15671C20.7581 6.15671 22.098 6.61502 23.0858 7.4308C24.0737 8.24658 24.6287 9.35302 24.6287 10.5067V13.4067H14.0935V10.5067ZM29.8962 27.9067C29.8962 28.2913 29.7112 28.6601 29.382 28.932C29.0527 29.2039 28.6061 29.3567 28.1404 29.3567H10.5818C10.1161 29.3567 9.66949 29.2039 9.34021 28.932C9.01092 28.6601 8.82593 28.2913 8.82593 27.9067V17.7567C8.82593 17.3722 9.01092 17.0033 9.34021 16.7314C9.66949 16.4595 10.1161 16.3067 10.5818 16.3067H28.1404C28.6061 16.3067 29.0527 16.4595 29.382 16.7314C29.7112 17.0033 29.8962 17.3722 29.8962 17.7567V27.9067Z" fill="#F9FEFD"/>
</g>
</g>
<defs>
<clipPath id="clip0_319_1790">
<rect width="39" height="39" fill="white" transform="translate(0 0.00817871)"/>
</clipPath>
<clipPath id="clip1_319_1790">
<rect width="31" height="32" fill="white" transform="translate(5.31421 0.256714)"/>
</clipPath>
</defs>
</svg>
